Coordinates
version=1
nRows=8
nColumns=36
inDegrees=yes

Units are S.I. units (second, meters, Newtons, ...)
If the header above contains a line with 'inDegrees', this indicates whether rotational values are in degrees (yes) or radians (no).

endheader
time	pelvis_tilt	pelvis_list	pelvis_rotation	pelvis_tx	pelvis_ty	pelvis_tz	hip_flexion_r	hip_adduction_r	hip_rotation_r	knee_angle_r	knee_angle_r_beta	ankle_angle_r	subtalar_angle_r	mtp_angle_r	hip_flexion_l	hip_adduction_l	hip_rotation_l	knee_angle_l	knee_angle_l_beta	ankle_angle_l	subtalar_angle_l	mtp_angle_l	lumbar_extension	lumbar_bending	lumbar_rotation	arm_flex_r	arm_add_r	arm_rot_r	elbow_flex_r	pro_sup_r	arm_flex_l	arm_add_l	arm_rot_l	elbow_flex_l	pro_sup_l
      5.98333330	     12.12846671	      4.89069425	     15.87851882	     -0.14952769	      0.75237073	     -0.13774129	     31.14504660	    -13.97377392	     -9.34163894	      1.51702944	      0.02647716	    -18.32356731	      0.11119970	     -7.49999987	     24.63237052	     11.74995197	      2.18224463	     72.94994876	      1.27321680	     27.80010686	     -9.99741934	     -7.49999987	    -36.89758641	     -8.97392091	     -0.59114553	     45.90100160	     12.54446850	     70.25947480	    129.45607106	     94.77204939	     59.62900958	      7.78588063	     66.40767143	    130.30238442	     71.10641089
      6.00000000	     12.31552650	      4.81169785	     16.35638562	     -0.15629390	      0.75167214	     -0.13744554	     31.33516149	    -14.31833171	     -9.29637312	      1.64942923	      0.02878797	    -19.47302225	      0.23121113	     -7.49999987	     25.21916624	     11.94840802	      2.51993601	     73.39417064	      1.28096993	     27.46319868	    -10.09104012	     -7.49999987	    -37.71847615	     -8.98231233	     -1.07280910	     46.20443359	     12.52977664	     70.77749409	    129.77889757	     95.11554892	     59.76811477	      8.14380969	     66.09801307	    130.24398063	     72.04412160
      6.01666670	     12.40237876	      4.73868029	     16.43183966	     -0.15113401	      0.74672210	     -0.13751585	     31.30237113	    -14.40421819	     -9.60785156	      1.60694621	      0.02804650	    -19.61576007	     -0.05421901	     -7.49999987	     25.13890266	     11.79539287	      2.66712408	     74.43070499	      1.29906087	     26.81577203	    -10.59452662	     -7.49999987	    -38.05936874	     -9.23751477	     -1.27288093	     46.58377040	     12.56321455	     71.14740328	    129.91017659	     95.14653949	     59.77814799	      8.32976089	     65.73636182	    130.07846382	     72.07164104
      6.03333330	     12.35912213	      4.68486579	     16.68596892	     -0.15459699	      0.74609382	     -0.13669985	     31.45085874	    -14.60253278	     -9.88443061	      1.46212693	      0.02551893	    -19.85751055	     -0.10532525	     -7.49999987	     25.83036487	     11.78462463	      2.53389031	     75.13286877	      1.31131594	     25.35601608	    -10.70293387	     -7.49999987	    -38.65696844	     -9.46934051	     -1.63542049	     46.49132593	     12.63394913	     71.76494125	    130.21798146	     95.69874101	     59.71716157	      8.53061932	     65.34079857	    129.97264520	     73.76704972
      6.05000000	     12.07742400	      4.95444196	     16.90488901	     -0.15433799	      0.74141337	     -0.13704783	     31.72845536	    -15.18982870	     -9.85949809	      1.15723053	      0.02019748	    -21.53677207	     -0.08519533	     -7.49999987	     26.76397977	     12.11353116	      2.33104800	     75.91061042	      1.32489009	     23.85885986	    -10.93188338	     -7.49999987	    -38.92429214	     -9.93808079	     -2.11988137	     46.46527320	     12.79164709	     72.09824909	    130.42558131	     96.10055092	     59.57620133	      8.65743010	     65.14295330	    130.36777214	     74.39354248
      6.06666670	     11.84779947	      4.99317008	     17.32324146	     -0.15444500	      0.73890324	     -0.13657771	     31.80138138	    -15.75314937	     -9.92801261	      1.02936696	      0.01796584	    -21.94267115	      0.25195446	     -7.49999987	     28.06649000	     12.11482444	      2.39735762	     76.92349900	      1.34256833	     25.30547324	     -9.16060536	     -7.49999987	    -39.25196918	    -10.29092956	     -2.57704388	     46.48640661	     12.63046944	     71.70077232	    130.80421756	     96.35620856	     59.88637308	      9.04581919	     65.08499871	    129.98090931	     74.55604309
      6.08333330	     11.75391824	      5.15871644	     17.46273835	     -0.15455575	      0.73616599	     -0.13669547	     31.87727320	    -16.25113735	     -9.99192819	      1.17739595	      0.02054944	    -20.94275229	      0.72041848	     -7.49999987	     29.21709632	     12.20337717	      2.10492125	     77.91290007	      1.35983664	     26.81664187	     -8.44076048	     -7.49999987	    -39.66100947	    -10.68659717	     -3.00400044	     46.72793332	     12.57837201	     70.78674495	    130.71538266	     97.08363851	     60.22220938	      9.24305980	     64.65963191	    129.83343700	     75.06612961
      6.10000000	     11.87458410	      5.05960201	     17.40020100	     -0.15221769	      0.73373672	     -0.13619599	     31.59731396	    -16.29748153	    -10.20324101	      1.18545204	      0.02069004	    -19.49218534	      0.66369549	     -7.49999987	     30.04092822	     11.73619933	      1.83631347	     79.11231059	      1.38077030	     26.38174975	     -8.35318456	     -7.49999987	    -39.99363337	    -10.83865682	     -3.28836297	     47.01369757	     12.53406434	     70.95759503	    130.72012627	     90.02088815	     60.38747352	      9.28907420	     64.52442873	    129.66217442	     72.11066709
